<mxfile host="65bd71144e">
    <diagram id="Ew8yXwdpUrjKyERuwxty" name="Page-1">
        <mxGraphModel dx="1913" dy="971" grid="1" gridSize="10" guides="1" tooltips="1" connect="1" arrows="1" fold="1" page="1" pageScale="1" pageWidth="850" pageHeight="1100" math="0" shadow="0">
            <root>
                <mxCell id="0"/>
                <mxCell id="1" parent="0"/>
                <mxCell id="2" value="ListaDatos" style="swimlane;fontStyle=1;align=center;verticalAlign=top;childLayout=stackLayout;horizontal=1;startSize=26;horizontalStack=0;resizeParent=1;resizeParentMax=0;resizeLast=0;collapsible=1;marginBottom=0;whiteSpace=wrap;html=1;fillColor=#b1ddf0;strokeColor=#10739e;" parent="1" vertex="1">
                    <mxGeometry x="1080" y="80" width="410" height="400" as="geometry"/>
                </mxCell>
                <mxCell id="5" value="&lt;div&gt;&lt;font&gt;+ vacio(): boolean&lt;/font&gt;&lt;/div&gt;&lt;div&gt;&lt;font&gt;+ poner(valor: Object): Integer&lt;/font&gt;&lt;/div&gt;&lt;div&gt;&lt;font&gt;+ buscar(valor: Object): Object&lt;/font&gt;&lt;/div&gt;&lt;div&gt;&lt;font&gt;+ imprimir(): void&lt;/font&gt;&lt;/div&gt;&lt;div&gt;&lt;font&gt;+ imprimirDesc(): void&lt;/font&gt;&lt;/div&gt;&lt;div&gt;&lt;font&gt;+ quitar(): Object&lt;/font&gt;&lt;/div&gt;&lt;div&gt;&lt;font&gt;+ quitar(valor: Object): Object&lt;/font&gt;&lt;/div&gt;&lt;div&gt;&lt;font&gt;+ esIgual(lista2: ListaDatos): boolean&lt;/font&gt;&lt;/div&gt;&lt;div&gt;&lt;font&gt;+ modificar(valorNuevo: Object, valorViejo: Object, numeroVeces: int): boolean&lt;/font&gt;&lt;/div&gt;&lt;div&gt;&lt;font&gt;+ buscarValores(valor: Object): Arreglo&lt;/font&gt;&lt;/div&gt;&lt;div&gt;&lt;font&gt;+ vaciar(): void&lt;/font&gt;&lt;/div&gt;&lt;div&gt;&lt;font&gt;+ agregarLista(lista2: ListaDatos): boolean&lt;/font&gt;&lt;/div&gt;&lt;div&gt;&lt;font&gt;+ invertir(): void&lt;/font&gt;&lt;/div&gt;&lt;div&gt;&lt;font&gt;+ contar(valorViejo: Object): int&lt;/font&gt;&lt;/div&gt;&lt;div&gt;&lt;font&gt;+ borrarLista(lista2: ListaDatos): boolean&lt;/font&gt;&lt;/div&gt;&lt;div&gt;&lt;font&gt;+ rellenar(valor: Object, cantidad: int): void&lt;/font&gt;&lt;/div&gt;&lt;div&gt;&lt;font&gt;+ clonar(): ListaDatos&lt;/font&gt;&lt;/div&gt;&lt;div&gt;&lt;font&gt;+ subLista(indiceInicial: int, indiceFinal: int): ListaDatos&lt;/font&gt;&lt;/div&gt;&lt;div&gt;&lt;font&gt;+ substituir(lista2: ListaDatos): boolean&lt;/font&gt;&lt;/div&gt;&lt;div&gt;&lt;font&gt;+ arregloDesordenado(): ListaDatos&lt;/font&gt;&lt;/div&gt;&lt;div&gt;&lt;font&gt;+ esSublista(lista2: ListaDatos): boolean&lt;/font&gt;&lt;/div&gt;&lt;div&gt;&lt;font&gt;+ modificarLista(lista2: ListaDatos, lista2Nuevos: ListaDatos): boolean&lt;/font&gt;&lt;/div&gt;&lt;div&gt;&lt;font&gt;+ retenerLista(lista2: ListaDatos): boolean&lt;/font&gt;&lt;/div&gt;" style="text;strokeColor=#10739e;fillColor=#b1ddf0;align=left;verticalAlign=top;spacingLeft=4;spacingRight=4;overflow=hidden;rotatable=0;points=[[0,0.5],[1,0.5]];portConstraint=eastwest;whiteSpace=wrap;html=1;" parent="2" vertex="1">
                    <mxGeometry y="26" width="410" height="374" as="geometry"/>
                </mxCell>
                <mxCell id="11" value="VectorFijo" style="swimlane;fontStyle=1;align=center;verticalAlign=top;childLayout=stackLayout;horizontal=1;startSize=26;horizontalStack=0;resizeParent=1;resizeParentMax=0;resizeLast=0;collapsible=1;marginBottom=0;whiteSpace=wrap;html=1;fillColor=#b1ddf0;strokeColor=#10739e;" parent="1" vertex="1">
                    <mxGeometry x="720" y="180" width="190" height="236" as="geometry"/>
                </mxCell>
                <mxCell id="14" value="&lt;div&gt;&lt;font&gt;+ lleno(): boolean&lt;/font&gt;&lt;/div&gt;&lt;div&gt;&lt;font&gt;+ capacidad(): int&lt;/font&gt;&lt;/div&gt;&lt;div&gt;&lt;font&gt;+ cantidad(): int&lt;/font&gt;&lt;/div&gt;&lt;div&gt;&lt;font&gt;+ obtener(indice: int): Object&lt;/font&gt;&lt;/div&gt;&lt;div&gt;&lt;font&gt;+ modificar(indice: int, valor: Object): boolean&lt;/font&gt;&lt;/div&gt;&lt;div&gt;&lt;font&gt;+ modificarLista(indicesBusqueda: Arreglo, valoresNuevos: Arreglo): boolean&lt;/font&gt;&lt;/div&gt;&lt;div&gt;&lt;font&gt;+ quitar(indice: int): Object&lt;/font&gt;&lt;/div&gt;&lt;div&gt;&lt;font&gt;+ redimensionar(maximo: int): boolean&lt;/font&gt;&lt;/div&gt;" style="text;strokeColor=#10739e;fillColor=#b1ddf0;align=left;verticalAlign=top;spacingLeft=4;spacingRight=4;overflow=hidden;rotatable=0;points=[[0,0.5],[1,0.5]];portConstraint=eastwest;whiteSpace=wrap;html=1;" parent="11" vertex="1">
                    <mxGeometry y="26" width="190" height="210" as="geometry"/>
                </mxCell>
                <mxCell id="15" value="" style="endArrow=block;dashed=1;endFill=0;endSize=12;html=1;exitX=1;exitY=0.085;exitDx=0;exitDy=0;exitPerimeter=0;entryX=-0.007;entryY=0.567;entryDx=0;entryDy=0;entryPerimeter=0;fillColor=#b1ddf0;strokeColor=#10739e;" parent="1" source="11" target="5" edge="1">
                    <mxGeometry width="160" relative="1" as="geometry">
                        <mxPoint x="280" y="520" as="sourcePoint"/>
                        <mxPoint x="440" y="520" as="targetPoint"/>
                    </mxGeometry>
                </mxCell>
                <mxCell id="16" value="Arreglo" style="swimlane;fontStyle=1;align=center;verticalAlign=top;childLayout=stackLayout;horizontal=1;startSize=26;horizontalStack=0;resizeParent=1;resizeParentMax=0;resizeLast=0;collapsible=1;marginBottom=0;whiteSpace=wrap;html=1;fillColor=#b1ddf0;strokeColor=#10739e;" parent="1" vertex="1">
                    <mxGeometry x="550" y="488" width="190" height="116" as="geometry"/>
                </mxCell>
                <mxCell id="17" value="- datos : &lt;span class=&quot;hljs-keyword&quot;&gt;Object&amp;nbsp;&lt;/span&gt;[ ]&amp;nbsp;&lt;br&gt;- capacidad : &lt;span class=&quot;hljs-type&quot;&gt;int&lt;/span&gt;&amp;nbsp;&lt;br&gt;- indiceSuperior : &lt;span class=&quot;hljs-type&quot;&gt;int&lt;/span&gt;" style="text;strokeColor=#10739e;fillColor=#b1ddf0;align=left;verticalAlign=top;spacingLeft=4;spacingRight=4;overflow=hidden;rotatable=0;points=[[0,0.5],[1,0.5]];portConstraint=eastwest;whiteSpace=wrap;html=1;" parent="16" vertex="1">
                    <mxGeometry y="26" width="190" height="64" as="geometry"/>
                </mxCell>
                <mxCell id="19" value="+ method(type): type" style="text;strokeColor=#10739e;fillColor=#b1ddf0;align=left;verticalAlign=top;spacingLeft=4;spacingRight=4;overflow=hidden;rotatable=0;points=[[0,0.5],[1,0.5]];portConstraint=eastwest;whiteSpace=wrap;html=1;" parent="16" vertex="1">
                    <mxGeometry y="90" width="190" height="26" as="geometry"/>
                </mxCell>
                <mxCell id="20" value="Extends" style="endArrow=block;endSize=16;endFill=0;html=1;exitX=0.5;exitY=0;exitDx=0;exitDy=0;entryX=0;entryY=0.5;entryDx=0;entryDy=0;fillColor=#b1ddf0;strokeColor=#10739e;" parent="1" source="16" target="14" edge="1">
                    <mxGeometry width="160" relative="1" as="geometry">
                        <mxPoint x="560" y="520" as="sourcePoint"/>
                        <mxPoint x="720" y="520" as="targetPoint"/>
                    </mxGeometry>
                </mxCell>
                <mxCell id="21" value="ArregloOrdenado" style="swimlane;fontStyle=0;childLayout=stackLayout;horizontal=1;startSize=30;fillColor=#b1ddf0;horizontalStack=0;resizeParent=1;resizeParentMax=0;resizeLast=0;collapsible=1;marginBottom=0;whiteSpace=wrap;html=1;strokeColor=#10739e;" parent="1" vertex="1">
                    <mxGeometry x="785" y="730" width="210" height="70" as="geometry"/>
                </mxCell>
                <mxCell id="22" value="&amp;nbsp;- tipoOrden : TipoOrdenamiento" style="text;strokeColor=#10739e;fillColor=#b1ddf0;align=left;verticalAlign=top;spacingLeft=4;spacingRight=4;overflow=hidden;rotatable=0;points=[[0,0.5],[1,0.5]];portConstraint=eastwest;whiteSpace=wrap;html=1;" parent="21" vertex="1">
                    <mxGeometry y="30" width="210" height="40" as="geometry"/>
                </mxCell>
                <mxCell id="25" value="Extends" style="endArrow=block;endSize=16;endFill=0;html=1;entryX=1.005;entryY=0.609;entryDx=0;entryDy=0;entryPerimeter=0;exitX=0.5;exitY=0;exitDx=0;exitDy=0;fillColor=#b1ddf0;strokeColor=#10739e;" parent="1" source="21" target="17" edge="1">
                    <mxGeometry x="0.0025" width="160" relative="1" as="geometry">
                        <mxPoint x="600" y="820" as="sourcePoint"/>
                        <mxPoint x="760" y="820" as="targetPoint"/>
                        <mxPoint as="offset"/>
                    </mxGeometry>
                </mxCell>
                <mxCell id="26" value="EDLineal" style="shape=umlFrame;whiteSpace=wrap;html=1;pointerEvents=0;fillColor=#b1ddf0;strokeColor=#10739e;" parent="1" vertex="1">
                    <mxGeometry x="190" y="40" width="1350" height="1240" as="geometry"/>
                </mxCell>
                <mxCell id="28" value="TipoOrden" style="swimlane;fontStyle=0;childLayout=stackLayout;horizontal=1;startSize=26;fillColor=#b1ddf0;horizontalStack=0;resizeParent=1;resizeParentMax=0;resizeLast=0;collapsible=1;marginBottom=0;whiteSpace=wrap;html=1;strokeColor=#10739e;" parent="1" vertex="1">
                    <mxGeometry x="1400" y="1060" width="140" height="84" as="geometry"/>
                </mxCell>
                <mxCell id="29" value="DEC" style="text;strokeColor=#10739e;fillColor=#b1ddf0;align=left;verticalAlign=top;spacingLeft=4;spacingRight=4;overflow=hidden;rotatable=0;points=[[0,0.5],[1,0.5]];portConstraint=eastwest;whiteSpace=wrap;html=1;" parent="28" vertex="1">
                    <mxGeometry y="26" width="140" height="26" as="geometry"/>
                </mxCell>
                <mxCell id="31" value="INC" style="text;strokeColor=#10739e;fillColor=#b1ddf0;align=left;verticalAlign=top;spacingLeft=4;spacingRight=4;overflow=hidden;rotatable=0;points=[[0,0.5],[1,0.5]];portConstraint=eastwest;whiteSpace=wrap;html=1;" parent="28" vertex="1">
                    <mxGeometry y="52" width="140" height="32" as="geometry"/>
                </mxCell>
                <mxCell id="32" value="enumerados" style="shape=umlFrame;whiteSpace=wrap;html=1;pointerEvents=0;width=80;height=30;fillColor=#b1ddf0;strokeColor=#10739e;" parent="1" vertex="1">
                    <mxGeometry x="1310" y="1030" width="295" height="166" as="geometry"/>
                </mxCell>
                <mxCell id="33" value="tools" style="shape=umlFrame;whiteSpace=wrap;html=1;pointerEvents=0;fillColor=#b1ddf0;strokeColor=#10739e;" parent="1" vertex="1">
                    <mxGeometry x="1250" y="1000" width="380" height="218" as="geometry"/>
                </mxCell>
                <mxCell id="34" value="" style="endArrow=none;html=1;edgeStyle=orthogonalEdgeStyle;entryX=0;entryY=0.5;entryDx=0;entryDy=0;exitX=1;exitY=0.5;exitDx=0;exitDy=0;fillColor=#b1ddf0;strokeColor=#10739e;" parent="1" source="22" target="29" edge="1">
                    <mxGeometry relative="1" as="geometry">
                        <mxPoint x="950" y="910" as="sourcePoint"/>
                        <mxPoint x="1110" y="910" as="targetPoint"/>
                    </mxGeometry>
                </mxCell>
                <mxCell id="35" value="ArregloNumerico" style="swimlane;fontStyle=0;childLayout=stackLayout;horizontal=1;startSize=26;fillColor=#dae8fc;horizontalStack=0;resizeParent=1;resizeParentMax=0;resizeLast=0;collapsible=1;marginBottom=0;whiteSpace=wrap;html=1;strokeColor=#6c8ebf;" vertex="1" parent="1">
                    <mxGeometry x="230" y="740" width="410" height="520" as="geometry"/>
                </mxCell>
                <mxCell id="36" value="&lt;li data-sourcepos=&quot;8:5-8:46&quot;&gt;&lt;code&gt;+ porEscalar(escalar: Number): boolean&lt;/code&gt;&lt;/li&gt;&lt;br/&gt;&lt;li data-sourcepos=&quot;9:5-9:48&quot;&gt;&lt;code&gt;+ sumarEscalar(escalar: Number): boolean&lt;/code&gt;&lt;/li&gt;&lt;br/&gt;&lt;li data-sourcepos=&quot;10:5-10:49&quot;&gt;&lt;code&gt;+ sumar(lista2: ArregloNumérico): boolean&lt;/code&gt;&lt;/li&gt;&lt;br/&gt;&lt;li data-sourcepos=&quot;11:5-11:55&quot;&gt;&lt;code&gt;+ multiplicar(lista2: ArregloNumérico): boolean&lt;/code&gt;&lt;/li&gt;&lt;br/&gt;&lt;li data-sourcepos=&quot;12:5-12:51&quot;&gt;&lt;code&gt;+ aplicarPotencia(escalar: Number): boolean&lt;/code&gt;&lt;/li&gt;&lt;br/&gt;&lt;li data-sourcepos=&quot;13:5-13:67&quot;&gt;&lt;code&gt;+ aplicarPotencia(listaEscalares: ArregloNumérico): boolean&lt;/code&gt;&lt;/li&gt;&lt;br/&gt;&lt;li data-sourcepos=&quot;14:5-14:58&quot;&gt;&lt;code&gt;+ productoEscalar(lista2: ArregloNumérico): double&lt;/code&gt;&lt;/li&gt;&lt;br/&gt;&lt;li data-sourcepos=&quot;15:5-15:25&quot;&gt;&lt;code&gt;+ norma(): double&lt;/code&gt;&lt;/li&gt;&lt;br/&gt;&lt;li data-sourcepos=&quot;16:5-16:60&quot;&gt;&lt;code&gt;+ normaEuclidiana(arreglo2: ArregloNumérico): double&lt;/code&gt;&lt;/li&gt;&lt;br/&gt;&lt;li data-sourcepos=&quot;17:5-17:54&quot;&gt;&lt;code&gt;+ sumarListaEstatica(listas: Arreglo): boolean&lt;/code&gt;&lt;/li&gt;&lt;br/&gt;&lt;li data-sourcepos=&quot;18:5-18:61&quot;&gt;&lt;code&gt;+ sumarEscalares(escalares: ArregloNumérico): boolean&lt;/code&gt;&lt;/li&gt;&lt;br/&gt;&lt;li data-sourcepos=&quot;19:5-19:61&quot;&gt;&lt;code&gt;+ sumarIndices(listaIndices: ArregloNumérico): double&lt;/code&gt;&lt;/li&gt;&lt;br/&gt;&lt;li data-sourcepos=&quot;20:5-20:55&quot;&gt;&lt;code&gt;+ esOrtogonal(lista2: ArregloNumérico): boolean&lt;/code&gt;&lt;/li&gt;&lt;br/&gt;&lt;li data-sourcepos=&quot;21:5-22:0&quot;&gt;&lt;code&gt;+ esParalelo(lista2: ArregloNumérico): boolean&lt;/code&gt;&lt;/li&gt;" style="text;strokeColor=#6c8ebf;fillColor=#dae8fc;align=left;verticalAlign=top;spacingLeft=4;spacingRight=4;overflow=hidden;rotatable=0;points=[[0,0.5],[1,0.5]];portConstraint=eastwest;whiteSpace=wrap;html=1;" vertex="1" parent="35">
                    <mxGeometry y="26" width="410" height="494" as="geometry"/>
                </mxCell>
                <mxCell id="39" value="Extends" style="endArrow=block;endSize=16;endFill=0;html=1;fillColor=#b1ddf0;strokeColor=#10739e;entryX=0;entryY=0.5;entryDx=0;entryDy=0;" edge="1" parent="1" source="35" target="17">
                    <mxGeometry x="0.0025" width="160" relative="1" as="geometry">
                        <mxPoint x="550" y="777" as="sourcePoint"/>
                        <mxPoint x="401" y="600" as="targetPoint"/>
                        <mxPoint as="offset"/>
                    </mxGeometry>
                </mxCell>
            </root>
        </mxGraphModel>
    </diagram>
</mxfile>